<mxfile host="app.diagrams.net" agent="Mozilla/5.0 (X11; Linux x86_64) AppleWebKit/537.36 (KHTML, like Gecko) Chrome/132.0.0.0 Safari/537.36" version="26.1.0">
  <diagram name="Page-1" id="CKk31lzkcVAHASGroGEC">
    <mxGraphModel dx="1439" dy="1298" grid="1" gridSize="10" guides="1" tooltips="1" connect="1" arrows="1" fold="1" page="1" pageScale="1" pageWidth="1169" pageHeight="827" math="0" shadow="0">
      <root>
        <mxCell id="0" />
        <mxCell id="1" parent="0" />
        <mxCell id="ZGtwyLP66gOGG5NbPFuv-45" value="" style="rounded=1;whiteSpace=wrap;html=1;fillColor=light-dark(#c4e5f3, #173d4d);dashed=1;arcSize=6;strokeColor=#10739e;" vertex="1" parent="1">
          <mxGeometry x="10" y="455" width="1100" height="185" as="geometry" />
        </mxCell>
        <mxCell id="ZGtwyLP66gOGG5NbPFuv-44" value="" style="rounded=1;whiteSpace=wrap;html=1;fillColor=#fad7ac;dashed=1;arcSize=6;strokeColor=#b46504;" vertex="1" parent="1">
          <mxGeometry x="10" y="225" width="1100" height="170" as="geometry" />
        </mxCell>
        <mxCell id="ZGtwyLP66gOGG5NbPFuv-43" value="" style="rounded=1;whiteSpace=wrap;html=1;fillColor=#f5f5f5;dashed=1;arcSize=6;strokeColor=#666666;fontColor=#333333;" vertex="1" parent="1">
          <mxGeometry x="10" y="30" width="1100" height="135" as="geometry" />
        </mxCell>
        <mxCell id="ZGtwyLP66gOGG5NbPFuv-1" value="Source" style="image;points=[];aspect=fixed;html=1;align=center;shadow=0;dashed=0;image=img/lib/allied_telesis/computer_and_terminals/Personal_Computer.svg;" vertex="1" parent="1">
          <mxGeometry x="40" y="45" width="22.14" height="30" as="geometry" />
        </mxCell>
        <mxCell id="ZGtwyLP66gOGG5NbPFuv-2" value="Target" style="image;points=[];aspect=fixed;html=1;align=center;shadow=0;dashed=0;image=img/lib/allied_telesis/computer_and_terminals/Personal_Computer.svg;" vertex="1" parent="1">
          <mxGeometry x="40" y="245" width="22.14" height="30" as="geometry" />
        </mxCell>
        <mxCell id="ZGtwyLP66gOGG5NbPFuv-3" value="API" style="image;aspect=fixed;html=1;points=[];align=center;fontSize=12;image=img/lib/azure2/web/API_Center.svg;" vertex="1" parent="1">
          <mxGeometry x="36.06999999999999" y="471.15" width="30" height="30" as="geometry" />
        </mxCell>
        <mxCell id="ZGtwyLP66gOGG5NbPFuv-4" value="STUN" style="image;aspect=fixed;perimeter=ellipsePerimeter;html=1;align=center;shadow=0;dashed=0;spacingTop=3;image=img/lib/active_directory/internet_cloud.svg;" vertex="1" parent="1">
          <mxGeometry x="310" y="335" width="50" height="31.5" as="geometry" />
        </mxCell>
        <mxCell id="ZGtwyLP66gOGG5NbPFuv-6" value="Session DB" style="image;aspect=fixed;perimeter=ellipsePerimeter;html=1;align=center;shadow=0;dashed=0;spacingTop=3;image=img/lib/active_directory/database_server.svg;" vertex="1" parent="1">
          <mxGeometry x="585" y="560" width="41" height="50" as="geometry" />
        </mxCell>
        <mxCell id="ZGtwyLP66gOGG5NbPFuv-17" style="edgeStyle=orthogonalEdgeStyle;rounded=0;orthogonalLoop=1;jettySize=auto;html=1;exitX=0.5;exitY=1;exitDx=0;exitDy=0;entryX=0.5;entryY=0;entryDx=0;entryDy=0;curved=1;startArrow=classicThin;startFill=1;endArrow=classicThin;endFill=1;" edge="1" parent="1" source="ZGtwyLP66gOGG5NbPFuv-15" target="ZGtwyLP66gOGG5NbPFuv-4">
          <mxGeometry relative="1" as="geometry" />
        </mxCell>
        <mxCell id="ZGtwyLP66gOGG5NbPFuv-19" value="" style="edgeStyle=orthogonalEdgeStyle;rounded=0;orthogonalLoop=1;jettySize=auto;html=1;" edge="1" parent="1" source="ZGtwyLP66gOGG5NbPFuv-15" target="ZGtwyLP66gOGG5NbPFuv-18">
          <mxGeometry relative="1" as="geometry" />
        </mxCell>
        <mxCell id="ZGtwyLP66gOGG5NbPFuv-15" value="Get Public Address" style="rounded=1;whiteSpace=wrap;html=1;absoluteArcSize=1;arcSize=14;strokeWidth=2;" vertex="1" parent="1">
          <mxGeometry x="260" y="259.54999999999995" width="90" height="40" as="geometry" />
        </mxCell>
        <mxCell id="ZGtwyLP66gOGG5NbPFuv-21" style="edgeStyle=orthogonalEdgeStyle;rounded=0;orthogonalLoop=1;jettySize=auto;html=1;exitX=0.5;exitY=1;exitDx=0;exitDy=0;entryX=0.5;entryY=0;entryDx=0;entryDy=0;curved=1;" edge="1" parent="1" source="ZGtwyLP66gOGG5NbPFuv-18" target="ZGtwyLP66gOGG5NbPFuv-20">
          <mxGeometry relative="1" as="geometry" />
        </mxCell>
        <mxCell id="ZGtwyLP66gOGG5NbPFuv-24" style="edgeStyle=orthogonalEdgeStyle;rounded=0;orthogonalLoop=1;jettySize=auto;html=1;exitX=1;exitY=0.5;exitDx=0;exitDy=0;entryX=0;entryY=0.5;entryDx=0;entryDy=0;" edge="1" parent="1" source="ZGtwyLP66gOGG5NbPFuv-18" target="ZGtwyLP66gOGG5NbPFuv-23">
          <mxGeometry relative="1" as="geometry" />
        </mxCell>
        <mxCell id="ZGtwyLP66gOGG5NbPFuv-18" value="Set target ip address" style="rounded=1;whiteSpace=wrap;html=1;absoluteArcSize=1;arcSize=14;strokeWidth=2;" vertex="1" parent="1">
          <mxGeometry x="400" y="254.54999999999995" width="100" height="50" as="geometry" />
        </mxCell>
        <mxCell id="ZGtwyLP66gOGG5NbPFuv-22" style="edgeStyle=orthogonalEdgeStyle;rounded=0;orthogonalLoop=1;jettySize=auto;html=1;exitX=0.5;exitY=1;exitDx=0;exitDy=0;entryX=0;entryY=0.5;entryDx=0;entryDy=0;curved=1;" edge="1" parent="1" source="ZGtwyLP66gOGG5NbPFuv-20" target="ZGtwyLP66gOGG5NbPFuv-6">
          <mxGeometry relative="1" as="geometry" />
        </mxCell>
        <mxCell id="ZGtwyLP66gOGG5NbPFuv-20" value="Creates a new session" style="rounded=1;whiteSpace=wrap;html=1;absoluteArcSize=1;arcSize=14;strokeWidth=2;" vertex="1" parent="1">
          <mxGeometry x="400" y="478.65" width="100" height="50" as="geometry" />
        </mxCell>
        <mxCell id="ZGtwyLP66gOGG5NbPFuv-53" value="" style="edgeStyle=orthogonalEdgeStyle;rounded=0;orthogonalLoop=1;jettySize=auto;html=1;" edge="1" parent="1" source="ZGtwyLP66gOGG5NbPFuv-23" target="ZGtwyLP66gOGG5NbPFuv-52">
          <mxGeometry relative="1" as="geometry" />
        </mxCell>
        <mxCell id="ZGtwyLP66gOGG5NbPFuv-23" value="Starts listening..." style="rounded=1;whiteSpace=wrap;html=1;absoluteArcSize=1;arcSize=14;strokeWidth=2;" vertex="1" parent="1">
          <mxGeometry x="800" y="254.54999999999995" width="120" height="50" as="geometry" />
        </mxCell>
        <mxCell id="ZGtwyLP66gOGG5NbPFuv-30" value="" style="edgeStyle=orthogonalEdgeStyle;rounded=0;orthogonalLoop=1;jettySize=auto;html=1;entryX=0;entryY=0.5;entryDx=0;entryDy=0;" edge="1" parent="1" source="ZGtwyLP66gOGG5NbPFuv-27" target="ZGtwyLP66gOGG5NbPFuv-39">
          <mxGeometry relative="1" as="geometry" />
        </mxCell>
        <mxCell id="ZGtwyLP66gOGG5NbPFuv-37" style="edgeStyle=orthogonalEdgeStyle;rounded=0;orthogonalLoop=1;jettySize=auto;html=1;exitX=0.5;exitY=1;exitDx=0;exitDy=0;entryX=0.5;entryY=0;entryDx=0;entryDy=0;" edge="1" parent="1" source="ZGtwyLP66gOGG5NbPFuv-27" target="ZGtwyLP66gOGG5NbPFuv-34">
          <mxGeometry relative="1" as="geometry" />
        </mxCell>
        <mxCell id="ZGtwyLP66gOGG5NbPFuv-27" value="Call API to get target device&#39;s Public IP address" style="rounded=1;whiteSpace=wrap;html=1;absoluteArcSize=1;arcSize=14;strokeWidth=2;" vertex="1" parent="1">
          <mxGeometry x="550" y="45" width="120" height="69.1" as="geometry" />
        </mxCell>
        <mxCell id="ZGtwyLP66gOGG5NbPFuv-54" style="edgeStyle=orthogonalEdgeStyle;rounded=0;orthogonalLoop=1;jettySize=auto;html=1;exitX=0.5;exitY=1;exitDx=0;exitDy=0;entryX=0.5;entryY=0;entryDx=0;entryDy=0;curved=1;" edge="1" parent="1" source="ZGtwyLP66gOGG5NbPFuv-29" target="ZGtwyLP66gOGG5NbPFuv-52">
          <mxGeometry relative="1" as="geometry" />
        </mxCell>
        <mxCell id="ZGtwyLP66gOGG5NbPFuv-29" value="Sends file to target device" style="rounded=1;whiteSpace=wrap;html=1;absoluteArcSize=1;arcSize=14;strokeWidth=2;" vertex="1" parent="1">
          <mxGeometry x="870" y="55.55000000000001" width="130" height="50" as="geometry" />
        </mxCell>
        <mxCell id="ZGtwyLP66gOGG5NbPFuv-31" value="Completed" style="strokeWidth=2;html=1;shape=mxgraph.flowchart.terminator;whiteSpace=wrap;fillColor=#dae8fc;strokeColor=#6c8ebf;" vertex="1" parent="1">
          <mxGeometry x="1160" y="150" width="100" height="60" as="geometry" />
        </mxCell>
        <mxCell id="ZGtwyLP66gOGG5NbPFuv-36" value="" style="edgeStyle=orthogonalEdgeStyle;rounded=0;orthogonalLoop=1;jettySize=auto;html=1;" edge="1" parent="1" source="ZGtwyLP66gOGG5NbPFuv-34" target="ZGtwyLP66gOGG5NbPFuv-35">
          <mxGeometry relative="1" as="geometry" />
        </mxCell>
        <mxCell id="ZGtwyLP66gOGG5NbPFuv-34" value="Gets email and mac from token" style="rounded=1;whiteSpace=wrap;html=1;absoluteArcSize=1;arcSize=14;strokeWidth=2;" vertex="1" parent="1">
          <mxGeometry x="560" y="478.65" width="100" height="50" as="geometry" />
        </mxCell>
        <mxCell id="ZGtwyLP66gOGG5NbPFuv-38" style="edgeStyle=orthogonalEdgeStyle;rounded=0;orthogonalLoop=1;jettySize=auto;html=1;exitX=0.5;exitY=1;exitDx=0;exitDy=0;entryX=1;entryY=0.5;entryDx=0;entryDy=0;curved=1;endArrow=classicThin;endFill=1;startArrow=classicThin;startFill=1;" edge="1" parent="1" source="ZGtwyLP66gOGG5NbPFuv-35" target="ZGtwyLP66gOGG5NbPFuv-6">
          <mxGeometry relative="1" as="geometry" />
        </mxCell>
        <mxCell id="ZGtwyLP66gOGG5NbPFuv-41" style="edgeStyle=orthogonalEdgeStyle;rounded=0;orthogonalLoop=1;jettySize=auto;html=1;exitX=0.5;exitY=0;exitDx=0;exitDy=0;entryX=0.5;entryY=1;entryDx=0;entryDy=0;" edge="1" parent="1" source="ZGtwyLP66gOGG5NbPFuv-35" target="ZGtwyLP66gOGG5NbPFuv-39">
          <mxGeometry relative="1" as="geometry" />
        </mxCell>
        <mxCell id="ZGtwyLP66gOGG5NbPFuv-35" value="Gets target public ip address from in memory db using mac" style="rounded=1;whiteSpace=wrap;html=1;absoluteArcSize=1;arcSize=14;strokeWidth=2;" vertex="1" parent="1">
          <mxGeometry x="710" y="471.15" width="120" height="65" as="geometry" />
        </mxCell>
        <mxCell id="ZGtwyLP66gOGG5NbPFuv-40" style="edgeStyle=orthogonalEdgeStyle;rounded=0;orthogonalLoop=1;jettySize=auto;html=1;exitX=1;exitY=0.5;exitDx=0;exitDy=0;entryX=0;entryY=0.5;entryDx=0;entryDy=0;" edge="1" parent="1" source="ZGtwyLP66gOGG5NbPFuv-39" target="ZGtwyLP66gOGG5NbPFuv-29">
          <mxGeometry relative="1" as="geometry" />
        </mxCell>
        <mxCell id="ZGtwyLP66gOGG5NbPFuv-39" value="Receives target&#39;s public IP Address" style="rounded=1;whiteSpace=wrap;html=1;absoluteArcSize=1;arcSize=14;strokeWidth=2;" vertex="1" parent="1">
          <mxGeometry x="720" y="50.45" width="100" height="60" as="geometry" />
        </mxCell>
        <mxCell id="ZGtwyLP66gOGG5NbPFuv-48" value="" style="edgeStyle=orthogonalEdgeStyle;rounded=0;orthogonalLoop=1;jettySize=auto;html=1;" edge="1" parent="1" source="ZGtwyLP66gOGG5NbPFuv-42" target="ZGtwyLP66gOGG5NbPFuv-46">
          <mxGeometry relative="1" as="geometry" />
        </mxCell>
        <mxCell id="ZGtwyLP66gOGG5NbPFuv-51" style="edgeStyle=orthogonalEdgeStyle;rounded=0;orthogonalLoop=1;jettySize=auto;html=1;exitX=0.5;exitY=1;exitDx=0;exitDy=0;exitPerimeter=0;entryX=0.5;entryY=0;entryDx=0;entryDy=0;curved=1;" edge="1" parent="1" source="ZGtwyLP66gOGG5NbPFuv-42" target="ZGtwyLP66gOGG5NbPFuv-49">
          <mxGeometry relative="1" as="geometry" />
        </mxCell>
        <mxCell id="ZGtwyLP66gOGG5NbPFuv-42" value="Start" style="strokeWidth=2;html=1;shape=mxgraph.flowchart.start_1;whiteSpace=wrap;fillColor=#d5e8d4;strokeColor=#82b366;" vertex="1" parent="1">
          <mxGeometry x="100" y="55.44999999999996" width="80" height="50" as="geometry" />
        </mxCell>
        <mxCell id="ZGtwyLP66gOGG5NbPFuv-47" value="" style="edgeStyle=orthogonalEdgeStyle;rounded=0;orthogonalLoop=1;jettySize=auto;html=1;entryX=0;entryY=0.5;entryDx=0;entryDy=0;" edge="1" parent="1" source="ZGtwyLP66gOGG5NbPFuv-46" target="ZGtwyLP66gOGG5NbPFuv-27">
          <mxGeometry relative="1" as="geometry">
            <mxPoint x="390" y="79.54999999999995" as="targetPoint" />
          </mxGeometry>
        </mxCell>
        <mxCell id="ZGtwyLP66gOGG5NbPFuv-46" value="Runs send command" style="rounded=1;whiteSpace=wrap;html=1;absoluteArcSize=1;arcSize=14;strokeWidth=2;" vertex="1" parent="1">
          <mxGeometry x="260" y="50.55000000000001" width="90" height="60" as="geometry" />
        </mxCell>
        <mxCell id="ZGtwyLP66gOGG5NbPFuv-50" value="" style="edgeStyle=orthogonalEdgeStyle;rounded=0;orthogonalLoop=1;jettySize=auto;html=1;" edge="1" parent="1" source="ZGtwyLP66gOGG5NbPFuv-49" target="ZGtwyLP66gOGG5NbPFuv-15">
          <mxGeometry relative="1" as="geometry" />
        </mxCell>
        <mxCell id="ZGtwyLP66gOGG5NbPFuv-49" value="Runs Listen command" style="rounded=1;whiteSpace=wrap;html=1;absoluteArcSize=1;arcSize=14;strokeWidth=2;" vertex="1" parent="1">
          <mxGeometry x="110" y="254.55" width="100" height="50" as="geometry" />
        </mxCell>
        <mxCell id="ZGtwyLP66gOGG5NbPFuv-56" style="edgeStyle=orthogonalEdgeStyle;rounded=0;orthogonalLoop=1;jettySize=auto;html=1;exitX=1;exitY=0.5;exitDx=0;exitDy=0;entryX=0;entryY=0.5;entryDx=0;entryDy=0;entryPerimeter=0;curved=1;" edge="1" parent="1" source="ZGtwyLP66gOGG5NbPFuv-52" target="ZGtwyLP66gOGG5NbPFuv-31">
          <mxGeometry relative="1" as="geometry">
            <mxPoint x="1180" y="240" as="targetPoint" />
          </mxGeometry>
        </mxCell>
        <mxCell id="ZGtwyLP66gOGG5NbPFuv-52" value="Receives file and saves it" style="rounded=1;whiteSpace=wrap;html=1;absoluteArcSize=1;arcSize=14;strokeWidth=2;" vertex="1" parent="1">
          <mxGeometry x="990" y="249.55" width="100" height="60" as="geometry" />
        </mxCell>
        <mxCell id="ZGtwyLP66gOGG5NbPFuv-55" style="edgeStyle=orthogonalEdgeStyle;rounded=0;orthogonalLoop=1;jettySize=auto;html=1;exitX=1;exitY=0.5;exitDx=0;exitDy=0;entryX=0;entryY=0.5;entryDx=0;entryDy=0;entryPerimeter=0;curved=1;" edge="1" parent="1" source="ZGtwyLP66gOGG5NbPFuv-29" target="ZGtwyLP66gOGG5NbPFuv-31">
          <mxGeometry relative="1" as="geometry" />
        </mxCell>
      </root>
    </mxGraphModel>
  </diagram>
</mxfile>
